<?xml version="1.0" encoding="UTF-8" standalone="no"?>
<!-- Created with Inkscape (http://www.inkscape.org/) -->

<svg
   width="125.52411mm"
   height="24.28377mm"
   viewBox="0 0 125.52411 24.28377"
   version="1.1"
   id="svg1"
   inkscape:version="1.4.2 (ebf0e94, 2025-05-08)"
   sodipodi:docname="Ceramics.svg"
   inkscape:export-filename="MAGDA_ceramics.jpg"
   inkscape:export-xdpi="96"
   inkscape:export-ydpi="96"
   xmlns:inkscape="http://www.inkscape.org/namespaces/inkscape"
   xmlns:sodipodi="http://sodipodi.sourceforge.net/DTD/sodipodi-0.dtd"
   xmlns="http://www.w3.org/2000/svg"
   xmlns:svg="http://www.w3.org/2000/svg">
  <sodipodi:namedview
     id="namedview1"
     pagecolor="#505050"
     bordercolor="#eeeeee"
     borderopacity="1"
     inkscape:showpageshadow="0"
     inkscape:pageopacity="0"
     inkscape:pagecheckerboard="0"
     inkscape:deskcolor="#505050"
     inkscape:document-units="mm"
     showguides="true"
     inkscape:zoom="1.0079825"
     inkscape:cx="-7.4406052"
     inkscape:cy="-79.366456"
     inkscape:window-width="1920"
     inkscape:window-height="1010"
     inkscape:window-x="0"
     inkscape:window-y="1080"
     inkscape:window-maximized="1"
     inkscape:current-layer="layer1"
     showgrid="false">
    <sodipodi:guide
       position="93.190449,-240.52479"
       orientation="0,-1"
       id="guide5"
       inkscape:locked="false" />
    <sodipodi:guide
       position="383.49929,-470.63902"
       orientation="0,-1"
       id="guide6"
       inkscape:locked="false" />
    <sodipodi:guide
       position="385.25254,-470.98967"
       orientation="0,-1"
       id="guide7"
       inkscape:locked="false" />
  </sodipodi:namedview>
  <defs
     id="defs1" />
  <g
     inkscape:label="Layer 1"
     inkscape:groupmode="layer"
     id="layer1"
     transform="translate(118.23305,154.96824)">
    <g
       aria-label="Magda Ceramics"
       id="text7394"
       style="font-weight:bold;font-size:25.4px;line-height:0;font-family:Cherolina;-inkscape-font-specification:'Cherolina Bold';letter-spacing:-1.32292px;word-spacing:13.2292px;fill:#6b929d;stroke-width:0.3;stroke-linecap:round;paint-order:fill markers stroke"
       transform="translate(23.885385,17.350933)">
      <path
         d="m -134.92506,-159.40832 q 0.24804,-0.71933 0.73173,-1.88516 0.71934,-1.77353 1.62471,-3.48505 0.90537,-1.71153 1.89756,-3.10059 0.99219,-1.40146 2.00918,-2.25723 1.01699,-0.85576 1.95957,-0.85576 0.45889,0 0.75654,0.32246 0.31006,0.31006 0.31006,1.017 0,1.12861 -0.33486,2.43085 -0.33487,1.30225 -0.88057,2.75332 -0.5457,1.43868 -1.19062,3.00137 -1.0294,2.48047 -1.86036,4.89893 -0.81855,2.40605 -0.81855,4.39043 0,0.78134 0.31006,1.6247 0.31006,0.85577 0.88057,1.36426 0.0868,0.0868 0.0868,0.18604 0,0.22324 -0.23564,0.23564 -0.11162,0 -0.19844,-0.0744 -0.5333,-0.58291 -0.81856,-1.47588 -0.28525,-0.89297 -0.28525,-1.86035 0,-2.38125 0.86817,-5.06016 0.96738,-2.84014 1.93476,-5.24619 0.58291,-1.46348 1.0542,-2.75332 0.48369,-1.30225 0.76895,-2.41846 0.28525,-1.12861 0.28525,-2.05879 0,-0.47129 -0.17363,-0.74414 -0.16123,-0.27285 -0.45889,-0.27285 -0.86816,0 -1.86035,0.84336 -0.97979,0.83096 -1.97197,2.24482 -0.99219,1.41387 -1.89756,3.1502 -1.35186,2.59209 -2.22002,5.09736 -0.86817,2.49287 -0.86817,3.91914 0,0.14883 -0.18603,0.14883 -0.17363,0 -0.17363,-0.14883 0,-2.23242 0.75654,-4.66328 0.83096,-2.56728 1.67431,-4.71289 0.75655,-1.95957 1.27745,-3.57187 0.52089,-1.61231 0.52089,-2.87735 0,-0.74414 -0.49609,-0.76894 -0.81855,0 -1.83555,1.0666 -1.01699,1.0666 -2.09599,2.79053 -1.07901,1.71152 -2.07119,3.7331 -0.99219,2.00918 -1.79834,3.95635 -0.79375,1.93477 -1.26504,3.43545 -0.47129,1.50068 -0.47129,2.1332 0,0.21084 -0.22324,0.21084 -0.21084,0 -0.21084,-0.21084 0,-1.78594 0.58291,-4.50205 0.59531,-2.71611 1.47588,-5.38262 0.89296,-2.6665 1.87275,-4.48964 0.0992,-0.19844 0.29766,-0.19844 0.0496,0 0.12402,0.0372 0.0868,0.0248 0.11162,0.0992 0.0248,0.062 0.0248,0.11163 0,0.062 -0.0496,0.13642 -1.20303,2.38125 -2.34405,6.02754 -1.14101,3.64629 -1.42627,5.8167 0.35967,-1.46348 2.17041,-5.48184 1.81075,-4.03076 4.06797,-7.16855 1.76113,-2.36885 3.06338,-2.36885 0.83096,0 0.90537,1.01699 0,1.17823 -0.29765,2.43086 -0.28526,1.24024 -0.75655,2.55489 -0.47129,1.30224 -1.01699,2.62929 -1.01699,2.43086 -1.6123,4.27881 z"
         style="fill:#000000"
         id="path7614" />
      <path
         d="m -117.95453,-160.85939 q 0.0868,0 0.11162,0.0248 0.0372,0.0248 0.0496,0.0496 0.0124,0.0248 0.0124,0.0744 l -0.062,0.0744 q -3.46025,1.92236 -5.69267,1.92236 -0.79375,0 -1.24024,-0.29765 -0.44648,-0.31006 -0.5209,-0.86817 -0.0744,0.0744 -0.42167,0.39688 -0.73174,0.66972 -1.19063,0.66972 -0.66973,0 -0.70693,-0.78134 0,-0.39688 0.29765,-0.89297 0.29766,-0.5085 0.75655,-0.88057 0.45888,-0.37207 0.95498,-0.37207 0.40927,0 0.5705,0.23564 0.17364,0.23565 0.17364,0.54571 0,0.0868 -0.0496,0.0992 -0.0496,0.0124 -0.0992,0.0124 -0.0248,0 -0.062,-0.0124 -0.0248,-0.0124 -0.0496,-0.0372 -0.0248,-0.0248 -0.0248,-0.0744 0,-0.33487 -0.40927,-0.34727 -0.32247,0 -0.69454,0.33486 -0.35966,0.33487 -0.60771,0.76895 -0.24805,0.43408 -0.24805,0.73174 0,0.37207 0.22324,0.40927 0.27286,0 0.69454,-0.33486 0.42168,-0.33486 0.91777,-0.86816 0.062,-0.11162 0.21084,-0.11162 0.27285,0 0.27285,0.23564 0,1.16582 1.26504,1.16582 2.1332,0 5.54385,-1.84795 z"
         style="fill:#000000"
         id="path7616" />
      <path
         d="m -124.3128,-148.29582 q 1.22783,0 2.25723,-0.66973 1.01699,-0.66972 1.84795,-1.82314 0.81855,-1.15342 1.41386,-2.6293 0.60772,-1.47588 0.95498,-2.98896 -0.32246,0.12402 -0.73173,0.28525 -2.24483,0.84336 -3.88194,1.5627 -1.63711,0.70693 -2.62929,1.53789 -1.15342,0.90537 -1.15342,2.6541 0,0.88057 0.5209,1.47588 0.50849,0.59531 1.40146,0.59531 z m 4.7749,-10.46758 q 0.27285,0 0.59532,-0.5209 0.32246,-0.5333 0.83095,-1.55029 l 0.0372,-0.0868 q -0.0124,-0.0124 -0.0992,-0.0124 -0.5085,0 -1.01699,0.57051 -0.5085,0.57051 -0.5085,1.21543 0,0.38447 0.16123,0.38447 z m 1.64951,-1.95957 q -0.13642,0.26045 -0.24804,0.5085 -0.17364,0.34726 -0.31006,0.59531 -0.13643,0.24805 -0.38447,0.59531 -0.29766,0.5209 -0.70694,0.5209 -0.65732,-0.0868 -0.65732,-0.78135 0,-0.69453 0.60771,-1.37666 0.60772,-0.69453 1.33946,-0.69453 0.24804,0 0.34726,0.0868 l 0.0248,-0.0372 q 0.23564,-0.5333 0.50849,-0.68213 0.0124,-0.0124 0.0372,-0.0248 0.0372,-0.0124 0.062,-0.0124 0.27285,0 0.34727,0.23564 0.0868,0.23565 0.0868,0.63252 0,2.1084 -0.43408,4.254 3.44785,-1.32705 8.14834,-3.95634 0.17363,0 0.17363,0.13642 0,0.0496 -0.062,0.0868 -4.7501,2.67891 -8.32197,4.03076 -0.70693,3.42305 -2.46807,5.92832 -1.76113,2.51768 -4.51445,2.6417 -0.95498,0 -1.56269,-0.68213 -0.60772,-0.66973 -0.60772,-1.64951 0,-1.83555 1.24023,-2.85254 1.21543,-1.02939 3.47266,-1.92236 1.11621,-0.43408 1.66192,-0.64492 0.43408,-0.17364 0.93017,-0.37207 0.5085,-0.19844 1.40147,-0.55811 0.52089,-2.31924 0.52089,-4.39043 0,-0.59531 -0.0248,-0.62012 -0.14883,0.0992 -0.44648,0.66973 0.062,0.0744 0.062,0.24805 0,0.13642 -0.13643,0.13642 -0.062,0 -0.0868,-0.0496 z"
         style="fill:#000000"
         id="path7618" />
      <path
         d="m -108.30965,-161.03303 q 1.79834,-2.19521 3.19981,-4.58886 1.40146,-2.39366 1.40146,-3.46026 0,-0.74414 -0.5581,-0.74414 -0.5333,0 -1.22783,0.88057 -0.68213,0.86816 -1.33946,2.19521 -0.64492,1.32705 -1.079,2.74092 -0.42168,1.40147 -0.42168,2.45567 z m 2.13321,2.90215 q -2.18282,0 -2.50528,-2.05879 -0.76894,0.86817 -1.31464,1.32705 -0.53331,0.44649 -0.91778,0.44649 -0.62012,0 -0.71933,-0.78135 0,-0.40928 0.24804,-0.85576 0.24805,-0.44649 0.66973,-0.75654 0.40928,-0.32246 0.89297,-0.32246 0.29765,0 0.43408,0.17363 0.14883,0.16123 0.14883,0.37207 0,0.13642 -0.12403,0.13642 -0.0744,0 -0.12402,-0.0868 -0.0496,-0.16123 -0.26045,-0.16123 -0.5333,0 -0.95498,0.57051 -0.42168,0.5581 -0.42168,1.0666 0,0.38447 0.19844,0.38447 0.45889,0 1.68672,-1.28984 0.21084,-0.19844 0.49609,-0.54571 -0.0868,-0.5457 -0.0868,-1.19062 0,-1.11621 0.37207,-2.38125 0.38447,-1.26504 0.97978,-2.44326 0.60772,-1.17823 1.27744,-2.0836 1.0418,-1.40146 1.93477,-1.47588 0.37207,0 0.59531,0.24805 0.23564,0.24805 0.23564,0.75654 0,0.91778 -0.96738,2.66651 -1.5999,3.01377 -3.86953,5.75468 0.17363,2.18282 2.096,2.28204 1.30224,0 2.71611,-0.97979 1.55029,-0.99219 2.02158,-1.47588 0.0372,-0.0248 0.062,-0.0248 0.16123,0 0.16123,0.12402 0,0.0496 -0.0496,0.0992 -0.66972,0.59531 -2.04638,1.50068 -1.47588,1.00459 -2.86494,1.00459 z"
         style="fill:#000000"
         id="path7620" />
      <path
         d="m -93.807176,-160.85939 q 0.08682,0 0.111622,0.0248 0.03721,0.0248 0.04961,0.0496 0.0124,0.0248 0.0124,0.0744 l -0.06201,0.0744 q -3.460254,1.92236 -5.692676,1.92236 -0.79375,0 -1.24023,-0.29765 -0.44649,-0.31006 -0.5209,-0.86817 -0.0744,0.0744 -0.42168,0.39688 -0.73174,0.66972 -1.19063,0.66972 -0.66972,0 -0.70693,-0.78134 0,-0.39688 0.29766,-0.89297 0.29765,-0.5085 0.75654,-0.88057 0.45888,-0.37207 0.95498,-0.37207 0.40928,0 0.57051,0.23564 0.17363,0.23565 0.17363,0.54571 0,0.0868 -0.0496,0.0992 -0.0496,0.0124 -0.0992,0.0124 -0.0248,0 -0.062,-0.0124 -0.0248,-0.0124 -0.0496,-0.0372 -0.0248,-0.0248 -0.0248,-0.0744 0,-0.33487 -0.40928,-0.34727 -0.32246,0 -0.69453,0.33486 -0.35967,0.33487 -0.60772,0.76895 -0.24805,0.43408 -0.24805,0.73174 0,0.37207 0.22325,0.40927 0.27285,0 0.69453,-0.33486 0.42168,-0.33486 0.91777,-0.86816 0.062,-0.11162 0.21084,-0.11162 0.27285,0 0.27285,0.23564 0,1.16582 1.265042,1.16582 2.133203,0 5.543848,-1.84795 z"
         style="fill:#000000"
         id="path7622" />
      <path
         d="m -74.554577,-153.67844 q -1.513086,-0.0248 -2.616894,-1.14101 -1.103809,-1.11621 -1.103809,-3.1502 0,-2.85254 1.37666,-5.90351 1.389063,-3.06338 3.683496,-5.271 2.244824,-2.1332 4.836914,-2.1332 0.731738,0 1.103809,0.29765 0.384472,0.28526 0.520898,0.69454 0.136426,0.40927 0.136426,0.78134 l -0.02481,0.40928 q -0.08682,0.19844 -0.223242,0.19844 -0.186035,0 -0.198437,-0.19844 0,-0.12402 0.06201,-0.19844 0.0124,-0.062 0.04961,-0.17363 0.03721,-0.11162 0.04961,-0.29766 0,-0.5705 -0.471289,-0.95498 -0.297656,-0.29765 -1.00459,-0.29765 -1.451074,0 -2.815332,0.89297 -1.364258,0.89296 -2.54248,2.34404 -1.165821,1.45107 -2.046387,3.1874 -0.868164,1.72393 -1.37666,3.47266 -0.496094,1.73633 -0.496094,3.15019 0,1.79834 0.84336,2.91455 0.855761,1.11621 2.257226,1.11621 1.637109,0 3.026172,-1.0666 2.455664,-1.94716 3.993555,-4.88652 l 0.570507,-1.11621 q 0.03721,-0.0372 0.09922,-0.0372 0.136426,0 0.136426,0.13643 -1.153418,2.18281 -2.182813,3.60908 -1.016992,1.41387 -2.468066,2.51768 -1.438672,1.1038 -3.175,1.1038 z"
         style="fill:#000000"
         id="path7624" />
      <path
         d="m -66.240878,-160.47492 q 0.322461,-0.0124 0.620117,-0.13643 0.297656,-0.12402 0.297656,-0.38447 0,-0.12402 -0.223242,-0.12402 -0.458887,0 -0.694531,0.64492 z m 0.74414,1.82314 q -1.339453,0 -1.401465,-1.12861 0,-0.62012 0.347266,-1.09141 0.347266,-0.47128 1.00459,-0.50849 0.186035,0 0.334863,0.0992 0.148828,0.0992 0.148828,0.28525 0,0.42168 -0.421679,0.59531 -0.42168,0.17364 -0.830957,0.17364 -0.03721,0.17363 -0.03721,0.40927 0,0.40928 0.223242,0.65733 0.235644,0.24804 0.632519,0.24804 0.942578,0 1.996778,-0.27285 1.054199,-0.27285 2.145605,-0.71933 1.091406,-0.44649 2.182813,-0.95498 0.06201,0 0.111621,0.0248 0.06201,0.0248 0.06201,0.11162 0,0.0248 -0.0248,0.062 -0.0124,0.0372 -0.03721,0.0372 -0.02481,0.0248 -0.657325,0.32246 -0.632519,0.29766 -1.612304,0.68213 -0.979785,0.38447 -2.095996,0.68213 -1.103809,0.28525 -2.071192,0.28525 z"
         style="fill:#000000"
         id="path7626" />
      <path
         d="m -59.564281,-161.75236 q -0.198437,0 -0.434082,0.23564 -0.235644,0.22324 -0.235644,0.44649 v 0.0248 q 0.21084,-0.13642 0.446484,-0.38447 0.223242,-0.23565 0.223242,-0.32246 z m -0.136425,3.89433 q -0.930176,0 -0.954981,-0.63252 0,-0.40927 0.285254,-0.90537 0.198437,-0.37207 0.198437,-0.59531 0,-0.16123 -0.173632,-0.35967 -0.285254,-0.35967 -0.285254,-0.71933 0,-0.39688 0.359668,-0.65733 0.37207,-0.26045 0.694531,-0.28525 0.124023,0 0.198437,0.0868 0.08682,0.0744 0.08682,0.17363 0,0.12402 -0.124024,0.28525 -0.210839,0.29766 -0.731738,0.68213 0.09922,0.18604 0.248047,0.34727 0.260449,0.29765 0.260449,0.5333 0,0.26045 -0.198437,0.62011 -0.235645,0.5209 -0.235645,0.84336 0,0.32246 0.372071,0.33487 2.244824,0 6.474023,-2.74092 l 0.04961,-0.0124 q 0.148828,0 0.148828,0.16123 l -0.06201,0.0744 q -4.216797,2.76572 -6.610449,2.76572 z"
         style="fill:#000000"
         id="path7628" />
      <path
         d="m -45.619916,-160.85939 q 0.08682,0 0.111621,0.0248 0.03721,0.0248 0.04961,0.0496 0.0124,0.0248 0.0124,0.0744 l -0.06201,0.0744 q -3.460254,1.92236 -5.692676,1.92236 -0.793749,0 -1.240234,-0.29765 -0.446484,-0.31006 -0.520898,-0.86817 -0.07441,0.0744 -0.42168,0.39688 -0.731738,0.66972 -1.190625,0.66972 -0.669727,0 -0.706934,-0.78134 0,-0.39688 0.297657,-0.89297 0.297656,-0.5085 0.756543,-0.88057 0.458886,-0.37207 0.95498,-0.37207 0.409277,0 0.570508,0.23564 0.173633,0.23565 0.173633,0.54571 0,0.0868 -0.04961,0.0992 -0.04961,0.0124 -0.09922,0.0124 -0.02481,0 -0.06201,-0.0124 -0.02481,-0.0124 -0.04961,-0.0372 -0.02481,-0.0248 -0.02481,-0.0744 0,-0.33487 -0.409278,-0.34727 -0.32246,0 -0.694531,0.33486 -0.359668,0.33487 -0.607715,0.76895 -0.248046,0.43408 -0.248046,0.73174 0,0.37207 0.223242,0.40927 0.272851,0 0.694531,-0.33486 0.42168,-0.33486 0.917773,-0.86816 0.06201,-0.11162 0.21084,-0.11162 0.272852,0 0.272852,0.23564 0,1.16582 1.265039,1.16582 2.133203,0 5.543847,-1.84795 z"
         style="fill:#000000"
         id="path7630" />
      <path
         d="m -47.01725,-159.50754 q 0.07441,-0.0992 0.359668,-0.50849 1.289844,-1.78594 2.195215,-1.78594 0.644922,0.0372 0.644922,0.74414 0,0.57051 -0.285254,1.22783 0.930175,-1.02939 1.649511,-1.02939 0.582911,0.0372 0.868164,0.35966 0.285254,0.32247 0.471289,0.71934 0.148829,0.32246 0.347266,0.57051 0.198438,0.23564 0.545703,0.26045 1.128613,0 3.336231,-0.94258 1.178222,-0.49609 2.133203,-0.97979 0.09922,0 0.124023,0.0496 0.03721,0.0372 0.03721,0.12403 -0.0248,0.0372 -0.03721,0.0496 -0.0124,0 -0.04961,0.0372 -0.03721,0.0248 -0.198438,0.0868 -0.148828,0.062 -0.384472,0.18604 -0.63252,0.33486 -1.513086,0.70693 -2.195215,0.94258 -3.447852,0.94258 -0.967383,0 -1.327051,-0.45889 -0.334863,-0.47129 -0.458886,-0.89297 -0.08682,-0.26045 -0.186035,-0.40928 -0.08682,-0.14882 -0.26045,-0.14882 -0.731738,0 -2.009179,1.53789 -0.08682,0.13642 -0.223242,0.13642 -0.111622,0 -0.223243,-0.0992 -0.111621,-0.0992 -0.111621,-0.21084 0,-0.0744 0.09922,-0.23564 0.682129,-1.37666 0.682129,-1.86035 0,-0.22324 -0.223242,-0.22324 -0.434082,0 -0.954981,0.49609 -0.520898,0.49609 -0.992187,1.16582 -0.471289,0.65732 -0.781348,1.16582 -0.310058,0.5085 -0.322461,0.57051 -0.08682,0.14883 -0.223242,0.14883 -0.186035,0 -0.198437,-0.28526 0.111621,-0.62012 0.421679,-1.51308 0.297656,-0.89297 0.558106,-1.41387 0.186035,-0.23565 0.409277,-0.23565 0.322461,0.0248 0.322461,0.26045 0,0.062 -0.04961,0.14883 -0.520899,0.96738 -0.744141,1.53789 z"
         style="fill:#000000"
         id="path7632" />
      <path
         d="m -35.441736,-161.75236 q -0.285254,0 -0.285254,-0.44649 0,-0.59531 0.396875,-0.68213 0.186035,0 0.322461,0.16124 0.136426,0.14882 0.136426,0.32246 0,0.22324 -0.186035,0.43408 -0.186035,0.21084 -0.384473,0.21084 z m 0.446485,3.22461 q -1.550293,0 -1.575098,-1.21543 0,-0.76895 0.496094,-1.41387 0.07441,-0.13643 0.272851,-0.13643 0.136426,0 0.235645,0.062 0.09922,0.0496 0.09922,0.14882 l -0.0124,0.062 q -0.409277,0.62011 -0.409277,1.31464 0,0.34727 0.21084,0.62012 0.223242,0.27285 0.669726,0.31006 0.756543,0 1.79834,-0.31006 1.054199,-0.32246 2.058789,-0.73174 1.00459,-0.40927 1.686719,-0.73173 l 0.706933,-0.32247 q 0.148828,0 0.148828,0.12403 0,0.0372 -0.0248,0.0744 -0.0124,0.0372 -0.03721,0.0372 -0.03721,0.0248 -0.719336,0.34726 -0.669727,0.31006 -1.661914,0.71934 -2.567285,1.0418 -3.943945,1.0418 z"
         style="fill:#000000"
         id="path7634" />
      <path
         d="m -29.546489,-158.56496 q -0.58291,0 -0.917773,-0.26045 -0.334864,-0.27285 -0.334864,-0.76894 0.07441,-0.84336 0.58291,-1.31465 0.508497,-0.48369 0.979786,-0.48369 0.198437,0 0.310058,0.0992 0.111621,0.0868 0.111621,0.39688 -0.0248,0.0868 -0.148828,0.0868 -0.09922,0 -0.124023,-0.11162 l 0.0124,-0.0496 q 0,-0.11163 -0.111621,-0.11163 -0.285254,0 -0.58291,0.32247 -0.285254,0.31005 -0.434082,0.95498 v 0.0248 q -0.02481,0.14883 -0.02481,0.26045 0,0.69453 0.682129,0.69453 1.227832,0 3.088184,-0.60771 1.872753,-0.62012 3.857128,-1.42627 0.09922,0 0.136426,0.0372 0.03721,0.0372 0.03721,0.13643 l -0.03721,0.0496 q -0.07441,0.0496 -0.843359,0.35967 -0.756543,0.31006 -1.909961,0.70693 -1.141016,0.39688 -2.319238,0.70693 -1.178223,0.29766 -2.00918,0.29766 z"
         style="fill:#000000"
         id="path7636" />
      <path
         d="m -24.420192,-156.1465 q -0.111621,0 -0.111621,-0.0992 -0.0124,0 -0.03721,-0.0248 l 0.0248,-0.0496 q 0.0124,-0.28525 0.235644,-0.5581 0.09922,-0.32246 0.09922,-0.60772 0,-0.38447 -0.148828,-0.90537 -0.186035,-0.49609 -0.186035,-1.19062 0,-0.88057 1.004589,-1.72393 0.07441,-0.062 0.148829,-0.062 0.210839,0 0.210839,0.18604 0,0.062 -0.04961,0.11162 -0.347266,0.28525 -0.558105,0.60771 -0.21084,0.32246 -0.21084,0.79375 0,0.55811 0.111621,0.99219 0.09922,0.38447 0.09922,0.78135 0,0.34726 -0.04961,0.5581 0.657324,-0.5457 2.257227,-1.27744 l 1.661914,-0.75654 q 1.785937,-0.74414 3.137793,-1.47588 l 0.03721,-0.0248 q 0.148828,0 0.148828,0.16123 l -0.06201,0.0744 q -1.513086,0.81855 -3.237012,1.55029 -0.79375,0.34727 -1.5875,0.71934 -1.823144,0.81855 -2.480468,1.47588 -0.09922,0.31006 -0.347266,0.68213 -0.03721,0.062 -0.111621,0.062 z"
         style="fill:#000000"
         id="path7638" />
    </g>
  </g>
</svg>
