<?xml version="1.0" encoding="UTF-8" standalone="no"?>
<!-- Created with Inkscape (http://www.inkscape.org/) -->

<svg
   width="69.700592mm"
   height="68.848473mm"
   viewBox="0 0 69.700592 68.848473"
   version="1.1"
   id="svg1"
   inkscape:version="1.4.2 (ebf0e94, 2025-05-08)"
   sodipodi:docname="MAGDA_ceramics.svg"
   inkscape:export-filename="MAGDA_ceramics.jpg"
   inkscape:export-xdpi="96"
   inkscape:export-ydpi="96"
   xmlns:inkscape="http://www.inkscape.org/namespaces/inkscape"
   xmlns:sodipodi="http://sodipodi.sourceforge.net/DTD/sodipodi-0.dtd"
   xmlns="http://www.w3.org/2000/svg"
   xmlns:svg="http://www.w3.org/2000/svg">
  <sodipodi:namedview
     id="namedview1"
     pagecolor="#505050"
     bordercolor="#eeeeee"
     borderopacity="1"
     inkscape:showpageshadow="0"
     inkscape:pageopacity="0"
     inkscape:pagecheckerboard="0"
     inkscape:deskcolor="#505050"
     inkscape:document-units="mm"
     showguides="true"
     inkscape:zoom="1.0079825"
     inkscape:cx="269.84595"
     inkscape:cy="69.44565"
     inkscape:window-width="1920"
     inkscape:window-height="1010"
     inkscape:window-x="0"
     inkscape:window-y="1080"
     inkscape:window-maximized="1"
     inkscape:current-layer="layer1"
     showgrid="false">
    <sodipodi:guide
       position="-190.45818,-28.430215"
       orientation="0,-1"
       id="guide5"
       inkscape:locked="false" />
    <sodipodi:guide
       position="99.850661,-258.54445"
       orientation="0,-1"
       id="guide6"
       inkscape:locked="false" />
    <sodipodi:guide
       position="101.60391,-258.8951"
       orientation="0,-1"
       id="guide7"
       inkscape:locked="false" />
  </sodipodi:namedview>
  <defs
     id="defs1" />
  <g
     inkscape:label="Layer 1"
     inkscape:groupmode="layer"
     id="layer1"
     transform="translate(-165.41557,-12.561627)">
    <path
       id="path1-3-6"
       style="fill:none;stroke:#000000;stroke-width:0.722048;stroke-linecap:round;stroke-linejoin:round;stroke-dasharray:none"
       d="m 230.37767,64.240977 c 2.78804,-4.977891 4.37748,-10.717861 4.37748,-16.829054 0,-19.047904 -15.44137,-34.489272 -34.48928,-34.489272 -19.0479,0 -34.48927,15.441368 -34.48927,34.489272 0,6.21336 1.64303,12.042979 4.51832,17.078074"
       sodipodi:nodetypes="csssc"
       inkscape:export-filename="./path1-3-6.svg"
       inkscape:export-xdpi="96"
       inkscape:export-ydpi="96" />
    <g
       aria-label="Magda"
       transform="rotate(-14.4)"
       id="text1"
       style="font-size:24.6782px;line-height:1.25;fill:none;stroke:#000000;stroke-width:0.264583;stroke-linecap:round;stroke-linejoin:round">
      <path
         d="m 163.72478,96.685851 q 0.24099,-0.698894 0.71094,-1.831585 0.69889,-1.723136 1.57854,-3.386023 0.87964,-1.662886 1.84363,-3.012475 0.96399,-1.361639 1.95209,-2.193083 0.98809,-0.831443 1.90388,-0.831443 0.44585,0 0.73504,0.313298 0.30125,0.301247 0.30125,0.988092 0,1.096541 -0.32535,2.36178 -0.32534,1.26524 -0.85554,2.675079 -0.53019,1.397788 -1.15679,2.916076 -1.00014,2.409981 -1.80748,4.759711 -0.7953,2.337682 -0.7953,4.265662 0,0.75915 0.30125,1.57854 0.30125,0.83144 0.85554,1.32549 0.0844,0.0844 0.0844,0.18075 0,0.2169 -0.22895,0.22895 -0.10845,0 -0.19279,-0.0723 -0.51815,-0.56635 -0.7953,-1.43394 -0.27715,-0.86759 -0.27715,-1.80749 0,-2.31358 0.8435,-4.916356 0.93989,-2.759428 1.87978,-5.097109 0.56635,-1.421888 1.02424,-2.675078 0.46995,-1.26524 0.7471,-2.349731 0.27715,-1.096541 0.27715,-2.000284 0,-0.457896 -0.1687,-0.722994 -0.15665,-0.265098 -0.44585,-0.265098 -0.84349,0 -1.80748,0.819393 -0.95195,0.807344 -1.91594,2.181033 -0.96399,1.373689 -1.84363,3.060675 -1.31344,2.51843 -2.15694,4.95251 -0.84349,2.42203 -0.84349,3.807769 0,0.1446 -0.18075,0.1446 -0.1687,0 -0.1687,-0.1446 0,-2.168983 0.73505,-4.530763 0.80734,-2.49433 1.62673,-4.578963 0.73505,-1.903885 1.24114,-3.470372 0.5061,-1.566487 0.5061,-2.795577 0,-0.722994 -0.482,-0.747094 -0.79529,0 -1.78338,1.036291 -0.98809,1.036292 -2.03644,2.711228 -1.04834,1.662887 -2.01233,3.627021 -0.96399,1.952084 -1.74724,3.843919 -0.77119,1.879784 -1.22909,3.337823 -0.45789,1.458037 -0.45789,2.072587 0,0.20484 -0.2169,0.20484 -0.20485,0 -0.20485,-0.20484 0,-1.73519 0.56635,-4.374119 0.57839,-2.638928 1.43394,-5.229657 0.86759,-2.590729 1.81953,-4.362065 0.0964,-0.192798 0.2892,-0.192798 0.0482,0 0.1205,0.03615 0.0844,0.0241 0.10845,0.0964 0.0241,0.06025 0.0241,0.108449 0,0.06025 -0.0482,0.132549 -1.16884,2.313581 -2.27743,5.856252 -1.1086,3.542671 -1.38574,5.651404 0.34944,-1.421888 2.10873,-5.326057 1.75929,-3.916218 3.95237,-6.964843 1.71108,-2.301531 2.97632,-2.301531 0.80735,0 0.87965,0.988092 0,1.14474 -0.2892,2.36178 -0.27715,1.204991 -0.73505,2.48228 -0.45789,1.26524 -0.98809,2.55458 -0.98809,2.36178 -1.56648,4.157216 z"
         style="font-family:Cherolina;-inkscape-font-specification:'Cherolina, Normal';fill:#000000"
         id="path1361" />
      <path
         d="m 181.49838,95.276012 q 0.0844,0 0.10845,0.0241 0.0361,0.0241 0.0482,0.0482 0.012,0.0241 0.012,0.0723 l -0.0602,0.0723 q -3.36192,1.867734 -5.53091,1.867734 -0.77119,0 -1.20499,-0.289197 -0.43379,-0.301248 -0.50609,-0.843493 -0.0723,0.0723 -0.4097,0.385596 -0.71094,0.650695 -1.15679,0.650695 -0.65069,0 -0.68684,-0.759144 0,-0.385597 0.28919,-0.867593 0.2892,-0.494046 0.73505,-0.855543 0.44585,-0.361497 0.92784,-0.361497 0.39765,0 0.5543,0.228948 0.1687,0.228949 0.1687,0.530196 0,0.08435 -0.0482,0.0964 -0.0482,0.01205 -0.0964,0.01205 -0.0241,0 -0.0602,-0.01205 -0.0241,-0.01205 -0.0482,-0.03615 -0.0241,-0.0241 -0.0241,-0.0723 0,-0.325347 -0.39765,-0.337397 -0.3133,0 -0.67479,0.325347 -0.34945,0.325348 -0.59045,0.747094 -0.241,0.421747 -0.241,0.710944 0,0.361498 0.2169,0.397647 0.2651,0 0.6748,-0.325347 0.40969,-0.325347 0.89169,-0.843493 0.0602,-0.108449 0.20485,-0.108449 0.26509,0 0.26509,0.228948 0,1.132691 1.22909,1.132691 2.07259,0 5.38631,-1.795436 z"
         style="font-family:Cherolina;-inkscape-font-specification:'Cherolina, Normal';fill:#000000"
         id="path1363" />
      <path
         d="m 176.60612,107.48256 q 1.19294,0 2.19308,-0.65069 0.9881,-0.6507 1.79544,-1.77134 0.79529,-1.12064 1.37369,-2.55458 0.59044,-1.43393 0.92784,-2.904023 -0.3133,0.120499 -0.71094,0.277148 -2.18104,0.819395 -3.77162,1.518285 -1.59059,0.68685 -2.55458,1.49419 -1.12064,0.87964 -1.12064,2.57868 0,0.85554 0.50609,1.43394 0.49405,0.57839 1.36164,0.57839 z m 4.63921,-10.170114 q 0.2651,0 0.5784,-0.506096 0.3133,-0.518146 0.80734,-1.506238 l 0.0361,-0.08435 q -0.012,-0.01205 -0.0964,-0.01205 -0.49404,0 -0.98809,0.554295 -0.49405,0.554296 -0.49405,1.180891 0,0.373547 0.15665,0.373547 z m 1.60264,-1.903885 q -0.13255,0.253048 -0.241,0.494046 -0.1687,0.337397 -0.30124,0.578396 -0.13255,0.240998 -0.37355,0.578395 -0.2892,0.506096 -0.68685,0.506096 -0.63864,-0.08435 -0.63864,-0.759144 0,-0.674795 0.59044,-1.337539 0.59045,-0.674795 1.30139,-0.674795 0.241,0 0.3374,0.08435 l 0.0241,-0.03615 q 0.22895,-0.518146 0.49405,-0.662745 0.012,-0.01205 0.0361,-0.0241 0.0361,-0.01205 0.0602,-0.01205 0.26509,0 0.33739,0.228948 0.0844,0.228948 0.0844,0.614545 0,2.048483 -0.42174,4.133116 3.34987,-1.289339 7.91678,-3.843919 0.1687,0 0.1687,0.132549 0,0.0482 -0.0603,0.08435 -4.61511,2.602778 -8.08548,3.916218 -0.68685,3.325772 -2.39793,5.759852 -1.71109,2.44613 -4.38617,2.56663 -0.92784,0 -1.51829,-0.66274 -0.59044,-0.6507 -0.59044,-1.60264 0,-1.78339 1.20499,-2.77148 1.18089,-1.00014 3.37397,-1.86773 1.08449,-0.42175 1.61469,-0.6266 0.42174,-0.1687 0.90374,-0.361496 0.49405,-0.192798 1.36164,-0.542245 0.5061,-2.253332 0.5061,-4.265666 0,-0.578395 -0.0241,-0.602495 -0.1446,0.0964 -0.4338,0.650695 0.0603,0.0723 0.0603,0.240998 0,0.132549 -0.13255,0.132549 -0.0602,0 -0.0844,-0.0482 z"
         style="font-family:Cherolina;-inkscape-font-specification:'Cherolina, Normal';fill:#000000"
         id="path1365" />
      <path
         d="m 193.43983,95.107314 q 1.74724,-2.132833 3.10888,-4.458464 1.36164,-2.325631 1.36164,-3.361923 0,-0.722994 -0.54225,-0.722994 -0.51814,0 -1.19294,0.855543 -0.66274,0.843493 -1.30139,2.132833 -0.62659,1.289339 -1.04834,2.663028 -0.4097,1.361639 -0.4097,2.385881 z m 2.07259,2.819677 q -2.12078,0 -2.43408,-2.000284 -0.7471,0.843493 -1.27729,1.28934 -0.51815,0.433796 -0.89169,0.433796 -0.6025,0 -0.6989,-0.759144 0,-0.397647 0.241,-0.831443 0.241,-0.433797 0.65069,-0.735044 0.39765,-0.313298 0.8676,-0.313298 0.28919,0 0.42174,0.168699 0.1446,0.156649 0.1446,0.361497 0,0.132549 -0.1205,0.132549 -0.0723,0 -0.1205,-0.08435 -0.0482,-0.156649 -0.25304,-0.156649 -0.51815,0 -0.92785,0.554296 -0.40969,0.542245 -0.40969,1.036291 0,0.373547 0.1928,0.373547 0.44584,0 1.63878,-1.25319 0.20485,-0.192798 0.482,-0.530195 -0.0844,-0.530196 -0.0844,-1.156791 0,-1.084491 0.3615,-2.313581 0.37354,-1.22909 0.95194,-2.373831 0.59044,-1.144741 1.24114,-2.024384 1.01219,-1.361639 1.87978,-1.433938 0.3615,0 0.5784,0.240998 0.22895,0.240998 0.22895,0.735044 0,0.891693 -0.9399,2.590729 -1.55443,2.928126 -3.75957,5.591155 0.1687,2.120783 2.03644,2.217182 1.26524,0 2.63893,-0.951943 1.50623,-0.963992 1.96413,-1.433938 0.0362,-0.0241 0.0602,-0.0241 0.15665,0 0.15665,0.120499 0,0.0482 -0.0482,0.0964 -0.6507,0.578395 -1.98823,1.458038 -1.43394,0.976042 -2.78353,0.976042 z"
         style="font-family:Cherolina;-inkscape-font-specification:'Cherolina, Normal';fill:#000000"
         id="path1367" />
      <path
         d="m 208.81551,95.276012 q 0.0844,0 0.10845,0.0241 0.0361,0.0241 0.0482,0.0482 0.012,0.0241 0.012,0.0723 l -0.0602,0.0723 q -3.36192,1.867734 -5.53091,1.867734 -0.77119,0 -1.20499,-0.289197 -0.43379,-0.301248 -0.50609,-0.843493 -0.0723,0.0723 -0.4097,0.385596 -0.71094,0.650695 -1.15679,0.650695 -0.65069,0 -0.68684,-0.759144 0,-0.385597 0.28919,-0.867593 0.2892,-0.494046 0.73505,-0.855543 0.44584,-0.361497 0.92784,-0.361497 0.39765,0 0.5543,0.228948 0.16869,0.228949 0.16869,0.530196 0,0.08435 -0.0482,0.0964 -0.0482,0.01205 -0.0964,0.01205 -0.0241,0 -0.0603,-0.01205 -0.0241,-0.01205 -0.0482,-0.03615 -0.0241,-0.0241 -0.0241,-0.0723 0,-0.325347 -0.39765,-0.337397 -0.3133,0 -0.67479,0.325347 -0.34945,0.325348 -0.59045,0.747094 -0.241,0.421747 -0.241,0.710944 0,0.361498 0.2169,0.397647 0.2651,0 0.67479,-0.325347 0.4097,-0.325347 0.8917,-0.843493 0.0602,-0.108449 0.20485,-0.108449 0.26509,0 0.26509,0.228948 0,1.132691 1.22909,1.132691 2.07259,0 5.38631,-1.795436 z"
         style="font-family:Cherolina;-inkscape-font-specification:'Cherolina, Normal';fill:#000000"
         id="path1369" />
    </g>
    <g
       aria-label="C  E  R  A  M  I  C  S"
       transform="matrix(1.1063772,0.1182376,-0.1182376,1.1063772,-110.94163,-144.40755)"
       id="text2"
       style="font-size:5.79854px;line-height:1.25;font-family:Magdalyn;-inkscape-font-specification:'Magdalyn, Normal';stroke-width:1.19829;stroke-linecap:round;stroke-linejoin:round">
      <path
         d="m 279.09205,166.11053 c 0.63661,0.50373 1.30342,0.55813 1.90063,0.29866 l -0.15544,-0.44835 c -0.49872,0.2191 -1.04959,0.16771 -1.48612,-0.17771 -0.68208,-0.53971 -0.66695,-1.43723 -0.12004,-2.1284 0.55051,-0.69572 1.41691,-0.91226 2.09898,-0.37254 0.45017,0.35621 0.59617,0.90059 0.49855,1.44447 l 0.46393,0.0491 c 0.1243,-0.63367 -0.0577,-1.31008 -0.70341,-1.82101 -0.92763,-0.73401 -2.05278,-0.47081 -2.74002,0.3977 -0.68003,0.85941 -0.67559,2.03123 0.24294,2.75804 z"
         style="font-family:'Mollen Personal Use';-inkscape-font-specification:'Mollen Personal Use, Normal'"
         id="path1372" />
      <path
         d="m 285.21303,165.39445 -1.66486,3.57429 2.43892,1.13603 0.16894,-0.36269 -2.02894,-0.94505 0.56557,-1.21421 1.71355,0.79815 0.17138,-0.36794 -1.71355,-0.79815 0.59004,-1.26677 2.02894,0.94505 0.16893,-0.36268 z"
         style="font-family:'Mollen Personal Use';-inkscape-font-specification:'Mollen Personal Use, Normal'"
         id="path1374" />
      <path
         d="m 289.53562,171.28097 0.44269,0.0926 0.29814,-1.42457 0.9762,0.2043 0.60995,1.61462 0.49946,0.10452 -0.64824,-1.65817 c 0.76845,0.0364 1.15411,-0.36273 1.27645,-0.94732 0.14373,-0.68674 -0.14402,-1.32161 -1.20536,-1.54372 l -1.44159,-0.3017 z m 1.16487,-3.3581 0.97052,0.20311 c 0.72648,0.15204 0.95391,0.53731 0.84819,1.04244 -0.10215,0.4881 -0.46736,0.76119 -1.19383,0.60915 l -0.97053,-0.20311 z"
         style="font-family:'Mollen Personal Use';-inkscape-font-specification:'Mollen Personal Use, Normal'"
         id="path1376" />
      <path
         d="m 296.20867,172.19726 0.32974,-0.95379 1.93609,-0.0489 0.37746,0.93593 0.45214,-0.0114 -1.58928,-3.90413 -0.57387,0.0145 -1.39022,3.97937 z m 1.23251,-3.56355 0.8786,2.17616 -1.64626,0.0416 z"
         style="font-family:'Mollen Personal Use';-inkscape-font-specification:'Mollen Personal Use, Normal'"
         id="path1378" />
      <path
         d="m 301.70612,167.83055 1.0938,3.78826 0.43453,-0.12546 -0.93455,-3.23673 2.22702,2.86355 0.47353,-0.13672 0.36348,-3.61152 0.93456,3.23673 0.43453,-0.12547 -1.0938,-3.78826 -0.6518,0.1882 -0.35767,3.69434 -2.26626,-2.93672 z"
         style="font-family:'Mollen Personal Use';-inkscape-font-specification:'Mollen Personal Use, Normal'"
         id="path1380" />
      <path
         d="m 310.24908,168.82956 0.40265,-0.21845 -1.88028,-3.46581 -0.40265,0.21845 z"
         style="font-family:'Mollen Personal Use';-inkscape-font-specification:'Mollen Personal Use, Normal'"
         id="path1382" />
      <path
         d="m 315.2541,165.49824 c 0.62411,-0.51913 0.81475,-1.16042 0.68392,-1.79828 l -0.47076,0.0597 c 0.11163,0.53316 -0.0522,1.06162 -0.48014,1.4176 -0.66869,0.55622 -1.54383,0.35645 -2.10746,-0.32115 -0.56734,-0.68206 -0.60069,-1.57449 0.068,-2.1307 0.44133,-0.36711 1.00412,-0.39778 1.51621,-0.19018 l 0.14369,-0.44384 c -0.59446,-0.25222 -1.29386,-0.2135 -1.92689,0.31305 -0.90941,0.75645 -0.88373,1.91169 -0.17548,2.76315 0.70083,0.84255 1.84841,1.07968 2.74891,0.33064 z"
         style="font-family:'Mollen Personal Use';-inkscape-font-specification:'Mollen Personal Use, Normal'"
         id="path1384" />
      <path
         d="m 319.73099,160.78342 c 0.73617,-0.97724 0.40453,-1.53924 0.0572,-1.80091 -1.0467,-0.78851 -2.22467,1.25704 -2.95644,0.70579 -0.27788,-0.20934 -0.30944,-0.63966 0.10225,-1.18617 0.30354,-0.40294 0.6751,-0.61669 0.98037,-0.74246 l -0.33809,-0.25469 c -0.2228,0.0645 -0.62336,0.27817 -0.99667,0.77373 -0.58266,0.77345 -0.53415,1.41256 -0.0479,1.7789 1.06987,0.80595 2.24549,-1.22685 2.98189,-0.67211 0.30104,0.22678 0.24562,0.65692 -0.1277,1.15248 -0.32098,0.4261 -0.80876,0.75558 -1.08738,0.89415 l 0.37514,0.28261 c 0.26473,-0.14904 0.7154,-0.47744 1.05731,-0.93132 z"
         style="font-family:'Mollen Personal Use';-inkscape-font-specification:'Mollen Personal Use, Normal'"
         id="path1386" />
    </g>
  </g>
</svg>
