<?xml version="1.0" encoding="UTF-8" standalone="no"?>
<!-- Created with Inkscape (http://www.inkscape.org/) -->

<svg
   width="25.649414mm"
   height="25.503363mm"
   viewBox="0 0 25.649414 25.503363"
   version="1.1"
   id="svg1"
   inkscape:version="1.4.2 (ebf0e94, 2025-05-08)"
   sodipodi:docname="Ceramics.svg"
   inkscape:export-filename="MAGDA_ceramics.jpg"
   inkscape:export-xdpi="96"
   inkscape:export-ydpi="96"
   xml:space="preserve"
   xmlns:inkscape="http://www.inkscape.org/namespaces/inkscape"
   xmlns:sodipodi="http://sodipodi.sourceforge.net/DTD/sodipodi-0.dtd"
   xmlns="http://www.w3.org/2000/svg"
   xmlns:svg="http://www.w3.org/2000/svg"><sodipodi:namedview
     id="namedview1"
     pagecolor="#505050"
     bordercolor="#eeeeee"
     borderopacity="1"
     inkscape:showpageshadow="0"
     inkscape:pageopacity="0"
     inkscape:pagecheckerboard="0"
     inkscape:deskcolor="#505050"
     inkscape:document-units="mm"
     showguides="true"
     inkscape:zoom="1.0079825"
     inkscape:cx="-7.4406052"
     inkscape:cy="-79.366456"
     inkscape:window-width="1920"
     inkscape:window-height="1010"
     inkscape:window-x="0"
     inkscape:window-y="1080"
     inkscape:window-maximized="1"
     inkscape:current-layer="layer1"
     showgrid="false"><sodipodi:guide
       position="-46.91162,-188.63208"
       orientation="0,-1"
       id="guide5"
       inkscape:locked="false" /><sodipodi:guide
       position="243.39721,-418.7463"
       orientation="0,-1"
       id="guide6"
       inkscape:locked="false" /><sodipodi:guide
       position="245.15046,-419.09695"
       orientation="0,-1"
       id="guide7"
       inkscape:locked="false" /></sodipodi:namedview><defs
     id="defs1" /><g
     id="g7766"
     transform="scale(0.35277777)"><path
       d="M 29.117,0 C 26.141,0 23.137,2.504 19.75,7.059 V 7.066 L 19.742,7.07 C 15.441,13.055 11.57,19.875 8.129,27.539 7.238,29.512 7.227,29.957 6.523,31.602 6.984,29.953 7.023,29.043 7.602,27.191 9.746,20.344 11.941,14.703 14.18,10.266 14.316,10.047 14.43,9.785 14.43,9.469 14.43,9.25 14.375,9.055 14.309,8.875 14.176,8.496 13.805,8.184 13.453,8.074 13.277,7.992 13.098,7.91 12.84,7.91 c -0.66,0 -1.317,0.461 -1.606,1.035 -1.879,3.5 -3.66,7.774 -5.355,12.836 v 0.004 C 4.207,26.852 2.805,31.965 1.672,37.129 v 0.004 C 0.562,42.305 0,46.605 0,50.074 c 0,0.34 0.102,0.746 0.398,1.043 0.301,0.301 0.711,0.399 1.055,0.399 0.344,0 0.746,-0.086 1.055,-0.379 0.312,-0.297 0.426,-0.715 0.426,-1.063 0,-0.984 0.418,-2.988 1.296,-5.793 0.883,-2.804 2.067,-6.031 3.559,-9.672 1.516,-3.66 3.203,-7.379 5.07,-11.16 h 0.008 c 1.863,-3.797 3.805,-7.297 5.824,-10.504 v -0.007 c 2.016,-3.223 3.969,-5.813 5.836,-7.77 1.836,-1.926 3.391,-2.746 4.567,-2.754 0.218,0.016 0.273,0.039 0.367,0.184 0.098,0.152 0.215,0.531 0.215,1.14 0,2.274 -0.477,4.91 -1.438,7.895 -0.98,3.027 -2.179,6.387 -3.605,10.078 -1.602,4.07 -3.188,8.539 -4.762,13.402 v 0.004 l -0.008,0.008 c -1.449,4.664 -2.179,9.152 -2.179,13.469 0,0.304 0.125,0.711 0.421,0.965 0.293,0.25 0.641,0.308 0.926,0.308 0.289,0 0.617,-0.051 0.922,-0.293 0.305,-0.242 0.453,-0.664 0.453,-0.98 0,-2.524 0.785,-6.164 2.41,-10.828 h 0.008 c 1.625,-4.692 3.699,-9.469 6.238,-14.332 1.696,-3.254 3.469,-6.204 5.321,-8.84 1.844,-2.629 3.668,-4.692 5.445,-6.199 V 8.387 c 1.781,-1.512 3.36,-2.184 4.723,-2.184 0.304,0 0.379,0.035 0.566,0.352 l 0.012,0.019 0.004,0.008 c 0.211,0.328 0.359,0.867 0.359,1.652 0,1.672 -0.254,3.551 -0.777,5.629 -0.531,2.075 -1.25,4.332 -2.156,6.766 v 0.008 c -0.887,2.425 -1.883,5.023 -2.985,7.781 -0.465,1.16 -0.929,2.344 -1.394,3.555 -0.77,1.402 -1.492,2.839 -2.168,4.328 -3.2,8.617 -7.285,20.633 -2.953,28.816 0.5,1.086 1.121,2.047 1.867,2.86 0.043,-0.016 0.074,-0.036 0.109,-0.051 0,0 0,0 0,0.004 -0.015,0.035 -0.027,0.07 -0.039,0.121 0.117,0.101 0.258,0.183 0.402,0.254 2.618,2.574 5.774,3.929 9.348,3.988 h 0.016 c 4.125,0 7.941,-1.324 11.343,-3.934 l 0.008,-0.007 0.008,-0.004 0.02,-0.02 c 3.347,-2.555 6.214,-5.473 8.574,-8.75 2.375,-3.289 4.871,-7.437 7.512,-12.433 l 0.007,-0.008 0.094,-0.168 V 46.77 c 0,-0.297 -0.086,-0.653 -0.355,-0.922 -0.27,-0.27 -0.625,-0.352 -0.922,-0.352 -0.313,0 -0.656,0.106 -0.906,0.359 l -0.008,0.008 -0.082,0.094 -2.008,3.918 c -3.457,6.609 -7.93,12.082 -13.438,16.449 v -0.008 c -3.043,2.336 -6.297,3.473 -9.847,3.473 -2.985,0 -5.25,-1.121 -7.074,-3.5 -1.793,-2.379 -2.719,-5.496 -2.719,-9.469 0,-3.129 0.551,-6.648 1.664,-10.55 1.144,-3.938 2.691,-7.844 4.648,-11.735 1.981,-3.906 4.285,-7.488 6.907,-10.75 2.64,-3.254 5.476,-5.863 8.507,-7.847 3,-1.961 6.047,-2.922 9.188,-2.922 1.492,0 2.406,0.332 2.859,0.777 l 0.012,0.027 0.047,0.028 c 0.926,0.754 1.312,1.558 1.316,2.636 v 0.008 c -0.027,0.348 -0.074,0.625 -0.121,0.762 -0.082,0.246 -0.141,0.437 -0.18,0.621 -0.004,0.02 -0.015,0.047 -0.019,0.066 l 0.047,0.012 c -0.129,0.27 -0.274,0.539 -0.274,0.832 v 0.047 c 0.02,0.352 0.133,0.734 0.426,1.027 0.297,0.293 0.692,0.407 1.055,0.407 0.363,0 0.703,-0.145 0.961,-0.375 0.246,-0.219 0.414,-0.493 0.543,-0.786 v -0.007 l 0.05,-0.129 0.102,-1.567 v -0.023 c 0,-0.945 -0.172,-1.922 -0.508,-2.922 -0.363,-1.094 -1.078,-2.027 -2.062,-2.758 -1.047,-0.828 -2.485,-1.191 -4.254,-1.191 v 0.004 c -6.133,0 -11.867,2.539 -17.098,7.511 l -0.094,0.086 v 0.032 c -1.039,1.007 -2.039,2.054 -3,3.136 0.696,-1.996 1.282,-3.918 1.758,-5.765 0.645,-2.516 0.973,-4.887 0.973,-7.102 0,-1.453 -0.313,-2.652 -1.117,-3.465 -0.711,-0.761 -1.692,-1.179 -2.754,-1.179 -2.039,0 -4.078,0.922 -6.102,2.621 -1.992,1.679 -3.937,3.863 -5.844,6.558 h 0.004 c -1.058,1.485 -2.031,3.285 -3.039,4.961 0.86,-2.422 1.571,-4.785 2.098,-7.082 V 10.816 C 32.242,8.395 32.531,6.035 32.531,3.738 V 3.672 C 32.453,2.594 32.168,1.68 31.57,1.008 30.969,0.336 30.074,0 29.117,0 Z m 17.449,5.668 0.02,0.023 C 46.582,5.688 46.574,5.691 46.574,5.688 46.57,5.684 46.57,5.672 46.566,5.668 Z"
       style="fill:#000000;fill-opacity:1;fill-rule:nonzero;stroke:none"
       id="path7768" /></g></svg>
